<?xml version="1.0" encoding="UTF-8"?>
<svg version="1.1" xmlns="http://www.w3.org/2000/svg" width="2236" height="1022">
<path d="M0 0 C31 0 31 0 38.0234375 5.90234375 C39.62890728 8.58481902 41.01343904 11.14744899 42.375 13.9375 C43.1862955 15.368331 44.00980418 16.79229858 44.84472656 18.20947266 C46.5184123 21.07496657 48.13351798 23.96219477 49.70800781 26.88330078 C52.96236152 32.84203242 56.84849749 38.3230687 60.75 43.875 C62.13617232 45.90526222 63.51901028 47.93780517 64.8984375 49.97265625 C65.57487305 50.96668457 66.25130859 51.96071289 66.94824219 52.98486328 C76.87704272 67.57561609 86.79756576 82.17195099 96.70544434 96.7769165 C105.12735759 109.19114631 113.56229675 121.59649715 122 134 C133.20845392 150.47653231 144.40561423 166.96066642 155.59277344 183.45166016 C159.16617615 188.71912716 162.74037324 193.98605512 166.31451416 199.25302124 C168.29304233 202.16865851 170.27151852 205.08433105 172.25 208 C173.04166642 209.16666684 173.83333308 210.3333335 174.625 211.5 C198.37499991 246.49999986 198.37499991 246.49999986 199.56253052 248.25004578 C200.35409446 249.41656053 201.14565941 250.58307461 201.93722534 251.74958801 C203.91797179 254.6685734 205.89870089 257.58757057 207.87939453 260.5065918 C211.42302239 265.72893095 214.96676297 270.95119339 218.51116943 276.17300415 C227.62495846 289.59995512 236.73258759 303.03104963 245.8324585 316.46743774 C252.05025718 325.64816333 258.27269491 334.82572019 264.5 344 C273.34824608 357.03583688 282.18547433 370.07911941 291.02023315 383.12409973 C294.07543658 387.63519075 297.13128822 392.14584209 300.1875 396.65625 C327.47354146 436.926313 354.72356775 477.22083629 381.91162109 517.55712891 C388.06953063 526.69255547 394.23240372 535.82455354 400.40625 544.94921875 C414.37613974 565.60455099 428.22185101 586.3341628 441.885849 607.19326782 C442.37901847 607.94606679 442.87218795 608.69886576 443.38030195 609.47447681 C444.586899 611.31629755 445.79346426 613.1581391 447 615 C446.98772402 614.33913579 446.97544804 613.67827158 446.96280006 612.99738118 C446.2559877 574.668636 445.85190984 536.35643723 445.88393438 498.02013552 C445.88791905 491.99015816 445.88696426 485.96018226 445.88625254 479.93020408 C445.88496249 467.65708601 445.88818645 455.38397347 445.89426994 443.11085701 C445.90025061 431.01332636 445.90404847 418.91579803 445.90512276 406.81826591 C445.9051915 406.05733309 445.90526024 405.29640026 445.90533106 404.51240887 C445.90566954 400.64576847 445.90597087 396.77912808 445.90625793 392.91248768 C445.90834117 365.74414713 445.91502963 338.57580957 445.92456055 311.4074707 C445.93379097 285.06469742 445.94085182 258.72192497 445.94506836 232.37915039 C445.94519989 231.56271768 445.94533141 230.74628496 445.94546692 229.90511186 C445.94678579 221.70385115 445.94806156 213.50259044 445.94930578 205.30132972 C445.95183989 188.60432373 445.95466114 171.9073178 445.95765686 155.21031189 C445.95779415 154.44313127 445.95793144 153.67595065 445.95807289 152.88552214 C445.96722554 101.92368015 445.98314322 50.96183996 446 0 C452.27 0 458.54 0 465 0 C465 209.88 465 419.76 465 636 C455.76 636 446.52 636 437 636 C428.30426608 626.12164626 428.30426608 626.12164626 425.78515625 621.01171875 C421.92151753 613.64067831 417.32865371 606.90749751 412.59640503 600.07156372 C410.08950843 596.43566675 407.62521118 592.77108718 405.15625 589.109375 C404.1342795 587.59689376 403.11214305 586.08452464 402.08984375 584.57226562 C401.05989278 583.04817915 400.02994486 581.52409061 399 580 C397.97526349 578.48372188 396.9505239 576.96744584 395.92578125 575.45117188 C388.08812284 563.85379299 380.25236086 552.25513309 372.41674805 540.65637207 C357.89918581 519.16666267 343.37575279 497.68094651 328.84277344 476.20166016 C324.5410686 469.84380034 320.2400475 463.48547799 315.93896484 457.12719727 C314.50230161 455.00340243 313.0656089 452.87962755 311.62890625 450.75585938 C307.29774316 444.35341059 302.96669445 437.95088455 298.63616943 431.54800415 C288.92892126 417.19540876 279.21934977 402.84440386 269.5 388.5 C262.20398764 377.73210396 254.91241817 366.96121434 247.625 356.1875 C247.14774475 355.48192963 246.6704895 354.77635925 246.17877197 354.04940796 C242.29958201 348.31435242 238.42065992 342.5791157 234.54174805 336.84387207 C221.23312975 317.16624074 207.91822972 297.49289316 194.59277344 277.82666016 C190.66621147 272.03160267 186.74039584 266.2360396 182.81451416 260.44052124 C180.62637242 257.21032741 178.43818387 253.98016529 176.25 250.75 C175.37499978 249.45833349 174.49999978 248.16666682 173.625 246.875 C173.191875 246.235625 172.75875 245.59625 172.3125 244.9375 C159.84375 226.53125 159.84375 226.53125 147.375 208.125 C146.94188507 207.48564011 146.50877014 206.84628021 146.06253052 206.18754578 C145.18742789 204.89572713 144.31232617 203.60390788 143.43722534 202.31208801 C141.25130288 199.08524162 139.06536484 195.85840578 136.87939453 192.6315918 C132.92306023 186.79142696 128.96684365 180.95118255 125.01119995 175.11054993 C113.79667263 158.55195887 102.57437744 141.99867276 91.34277344 125.45166016 C87.79097492 120.21886483 84.24000799 114.98550521 80.68896484 109.75219727 C79.50230647 108.00339909 78.31561239 106.25462514 77.12890625 104.50585938 C73.145443 98.63568139 69.16229438 92.76529028 65.1796875 86.89453125 C55.48477374 72.60367033 45.78438803 58.31655773 36.06835938 44.04003906 C33.9247375 40.88938047 31.78268347 37.73765916 29.640625 34.5859375 C28.26048728 32.55724363 26.88028174 30.52859589 25.5 28.5 C24.85836914 27.55527832 24.21673828 26.61055664 23.55566406 25.63720703 C22.97010742 24.77724121 22.38455078 23.91727539 21.78125 23.03125 C21.26626953 22.27392578 20.75128906 21.51660156 20.22070312 20.73632812 C19.11457838 19.05731821 19.11457838 19.05731821 18 18 C17.85411176 27.38547691 18.11271609 36.73475712 18.46875 46.11328125 C19.92941282 86.73220406 20.08107626 127.41064883 20.04320204 168.05229355 C20.04017461 171.66158763 20.0388264 175.27088182 20.03734776 178.88017681 C20.01886249 221.55200499 19.91402351 264.22373043 19.80645707 306.89540877 C19.77763652 318.34424156 19.75004961 329.79307726 19.72249681 341.24191316 C19.67338269 361.63743304 19.62337437 382.03295061 19.57275391 402.4284668 C19.52375861 422.17000207 19.47521548 441.91153838 19.42724609 461.65307617 C19.4242591 462.88229582 19.4212721 464.11151547 19.41819459 465.3779842 C19.40320343 471.54830612 19.38822079 477.71862805 19.37324238 483.88894999 C19.25014865 534.5926366 19.12556727 585.29631946 19 636 C12.73 636 6.46 636 0 636 C0 426.12 0 216.24 0 0 Z " fill="#FFFFFF" transform="translate(1017,77)"/>
<path d="M0 0 C126.39 0 252.78 0 383 0 C383 5.61 383 11.22 383 17 C262.88 17 142.76 17 19 17 C19 107.09 19 197.18 19 290 C133.18 290 247.36 290 365 290 C365 295.94 365 301.88 365 308 C250.82 308 136.64 308 19 308 C19 410.63 19 513.26 19 619 C143.08 619 267.16 619 395 619 C394 628 394 628 392 636 C262.64 636 133.28 636 0 636 C0 426.12 0 216.24 0 0 Z " fill="#FFFFFF" transform="translate(1808,77)"/>
<path d="M0 0 C125.73 0 251.46 0 381 0 C381 5.61 381 11.22 381 17 C261.54 17 142.08 17 19 17 C19 112.37 19 207.74 19 306 C131.2 306 243.4 306 359 306 C359 311.61 359 317.22 359 323 C246.8 323 134.6 323 19 323 C19 426.29 19 529.58 19 636 C12.73 636 6.46 636 0 636 C0 426.12 0 216.24 0 0 Z " fill="#FFFFFF" transform="translate(30,77)"/>
<path d="M0 0 C6.27 0 12.54 0 19 0 C19 209.88 19 419.76 19 636 C12.73 636 6.46 636 0 636 C0 426.12 0 216.24 0 0 Z " fill="#FFFFFF" transform="translate(672,77)"/>
<path d="M0 0 C81.78290993 0 81.78290993 0 96 12 C100.80737022 16.97568077 103.33636984 22.33351079 105 29 C105.18433594 29.73734375 105.36867188 30.4746875 105.55859375 31.234375 C107.54117051 43.65618335 107.01550009 57.92697396 100.3125 68.8125 C94.59258563 76.58427554 87.7421553 81.11260717 79 85 C79.57105469 85.71800781 80.14210938 86.43601562 80.73046875 87.17578125 C86.52223158 94.56971695 91.90189915 102.16294116 97.15185547 109.95019531 C101.28621738 116.04902493 105.66327337 121.88023783 110.26953125 127.62890625 C112 130 112 130 112 132 C86.49310659 134.51085368 86.49310659 134.51085368 79.70898438 130.71972656 C76.13639026 127.23984683 74.20337099 122.88395038 72.18554688 118.38330078 C70.04768858 114.08557164 67.07234661 110.38076228 64.1875 106.5625 C63.13506587 105.12941868 62.08675244 103.69330031 61.04296875 102.25390625 C60.26953125 101.22148804 60.26953125 101.22148804 59.48046875 100.16821289 C58 98 58 98 56.78515625 95.50170898 C55.4023596 92.81909409 54.27438895 90.99727254 52 89 C47.18873304 87.75212861 42.57093368 87.83300844 37.625 87.9375 C33.12875 87.958125 28.6325 87.97875 24 88 C24 102.52 24 117.04 24 132 C16.08 132 8.16 132 0 132 C0 88.44 0 44.88 0 0 Z M24 21 C24 36.18 24 51.36 24 67 C29.6925 67.061875 35.385 67.12375 41.25 67.1875 C43.02020508 67.21481201 44.79041016 67.24212402 46.61425781 67.27026367 C63.25235189 67.45494824 63.25235189 67.45494824 77.59765625 59.890625 C81.55667573 54.55311684 82.48686351 49.46908587 82.375 42.9375 C82.38660156 42.25623047 82.39820313 41.57496094 82.41015625 40.87304688 C82.3830986 36.17854512 81.45814016 32.98067615 79 29 C71.13368311 21.30849015 61.92363943 20.83002107 51.44140625 20.90234375 C50.7407605 20.90335083 50.04011475 20.90435791 49.3182373 20.90539551 C46.73297458 20.91057696 44.14773542 20.92453769 41.5625 20.9375 C35.766875 20.958125 29.97125 20.97875 24 21 Z " fill="#FFFFFF" transform="translate(653,826)"/>
<path d="M0 0 C81.98956074 0 81.98956074 0 96.0625 11.92578125 C105.53997024 22.0720246 106.56774853 34.68379781 106.25 47.87109375 C105.75009315 58.82655236 101.82767013 68.68718515 93.8125 76.25 C89.28478675 80.06120644 84.40920398 82.6511181 79 85 C80.09054687 86.43666016 80.09054687 86.43666016 81.203125 87.90234375 C88.18439594 97.13450306 94.96744502 106.48504734 101.58935547 115.97802734 C102.97417789 117.96298741 104.36377774 119.94453502 105.75390625 121.92578125 C106.58630205 123.11693283 107.41835372 124.30832499 108.25 125.5 C108.97703125 126.5415625 109.7040625 127.583125 110.453125 128.65625 C112 131 112 131 112 132 C86.65622986 134.99947831 86.65622986 134.99947831 79.48046875 130.37695312 C75.3686484 126.05832524 72.82449085 120.88479873 70.28710938 115.53564453 C68.31235125 111.64531109 65.73135864 108.30973242 63.0625 104.875 C62.21589188 103.75051596 61.37329963 102.62299488 60.53515625 101.4921875 C60.11395508 100.94651123 59.69275391 100.40083496 59.25878906 99.83862305 C58 98 58 98 56.87402344 95.60864258 C55.47540483 92.86638591 54.32277201 91.03659608 52 89 C47.02636075 87.73938793 42.23164857 87.83347254 37.125 87.9375 C32.46375 87.958125 27.8025 87.97875 23 88 C23 102.52 23 117.04 23 132 C15.41 132 7.82 132 0 132 C0 88.44 0 44.88 0 0 Z M23 21 C23 36.18 23 51.36 23 67 C31.78625 67.0928125 31.78625 67.0928125 40.75 67.1875 C42.57241211 67.21481201 44.39482422 67.24212402 46.27246094 67.27026367 C61.98276875 67.51653714 61.98276875 67.51653714 76.0625 61.3125 C81.44997232 55.9118875 82.17737986 50.39173154 82.375 42.9375 C82.18710773 35.60970161 81.50394023 31.50394023 76.1875 26.1875 C68.6378591 21.00637389 60.09498981 20.84286076 51.22265625 20.90234375 C50.50235229 20.90335083 49.78204834 20.90435791 49.03991699 20.90539551 C46.38076151 20.91057905 43.72162895 20.92453983 41.0625 20.9375 C32.1215625 20.9684375 32.1215625 20.9684375 23 21 Z " fill="#FFFFFF" transform="translate(1836,826)"/>
<path d="M0 0 C82.68316116 0 82.68316116 0 96.796875 13.42578125 C104.18829267 22.06220721 105.19165451 31.79877271 105.25 42.6875 C105.270625 43.63044922 105.29125 44.57339844 105.3125 45.54492188 C105.3702127 56.04141967 102.68335839 65.7401236 96 74 C90.78929612 78.56711992 85.23199312 82.00314449 79 85 C87.81126025 98.16246863 87.81126025 98.16246863 97.25 110.875 C100.66423306 115.23514353 103.95489531 119.6485436 107.125 124.1875 C107.87007812 125.25355469 108.61515625 126.31960938 109.3828125 127.41796875 C111 130 111 130 111 132 C86.54412349 134.51225914 86.54412349 134.51225914 79.62597656 130.6875 C75.82364383 127.19444792 73.49220266 122.85511594 71.19628906 118.27978516 C69.22098853 114.51542671 66.71243319 111.14384238 64.25 107.6875 C63.41929559 106.46398691 62.59114847 105.23873346 61.765625 104.01171875 C61.32863281 103.39578857 60.89164063 102.7798584 60.44140625 102.14526367 C59 100 59 100 57.40234375 97.11450195 C53.78764594 91.11328895 53.78764594 91.11328895 47.73535156 88.02856445 C43.93031505 87.69260085 40.31976252 87.68066945 36.5 87.8125 C32.045 87.874375 27.59 87.93625 23 88 C23 102.52 23 117.04 23 132 C15.41 132 7.82 132 0 132 C0 88.44 0 44.88 0 0 Z M23 21 C23 36.18 23 51.36 23 67 C28.6925 67.061875 34.385 67.12375 40.25 67.1875 C42.02020508 67.21481201 43.79041016 67.24212402 45.61425781 67.27026367 C62.47906542 67.51118636 62.47906542 67.51118636 77 60 C81.6276708 52.87129029 83.27988362 45.03661644 81.50390625 36.66015625 C80.01552466 31.60638599 78.31035305 28.25671119 74 25 C66.70054156 21.41059688 59.3316137 20.84899109 51.3203125 20.90234375 C50.59900146 20.90335083 49.87769043 20.90435791 49.13452148 20.90539551 C46.4646646 20.91058978 43.79483054 20.92455078 41.125 20.9375 C35.14375 20.958125 29.1625 20.97875 23 21 Z " fill="#FFFFFF" transform="translate(1187,826)"/>
<path d="M0 0 C2.5233201 2.20070383 4.89901274 4.48406871 7.25390625 6.86328125 C7.95128906 7.52714844 8.64867187 8.19101562 9.3671875 8.875 C22.23198379 21.98959816 26.78741654 39.75584739 26.67626953 57.67919922 C26.09130608 76.70771621 18.42977843 93.08408354 4.72265625 106.3046875 C-9.14489389 118.35722005 -24.69246777 123.46561944 -42.93359375 123.36328125 C-44.11107178 123.35828613 -45.2885498 123.35329102 -46.50170898 123.34814453 C-60.25107698 123.07505935 -72.50781508 120.13616538 -83.74609375 111.86328125 C-84.64714844 111.21617187 -85.54820313 110.5690625 -86.4765625 109.90234375 C-101.57481086 98.36519949 -110.1686316 82.52686879 -112.74609375 63.86328125 C-113.79959987 44.27211932 -110.56656658 25.52520115 -97.30859375 10.36328125 C-95.80834658 8.84269174 -94.28822351 7.34137794 -92.74609375 5.86328125 C-92.08351563 5.16976562 -91.4209375 4.47625 -90.73828125 3.76171875 C-67.50730613 -19.11593356 -25.21240209 -19.61761585 0 0 Z M-79.74609375 25.86328125 C-88.19300206 37.34878328 -90.18086742 49.9249965 -88.74609375 63.86328125 C-86.29489796 76.45484058 -79.13993264 87.40277699 -68.74609375 94.86328125 C-57.0871642 101.86220986 -44.66134024 103.67021198 -31.359375 101.24609375 C-18.63513814 97.48703815 -9.28130552 88.88485028 -2.4375 77.73046875 C3.28820533 67.03409615 3.86409722 54.10636115 1.56640625 42.34375 C-1.97745881 30.84095465 -9.38772281 20.40045859 -19.7109375 14.03515625 C-41.19734097 2.87198068 -63.9770693 7.19994218 -79.74609375 25.86328125 Z " fill="#FFFFFF" transform="translate(1453.74609375,836.13671875)"/>
<path d="M0 0 C30.69 0 61.38 0 93 0 C93 7.26 93 14.52 93 22 C69.9 22 46.8 22 23 22 C23 33.22 23 44.44 23 56 C43.46 56 63.92 56 85 56 C85 62.6 85 69.2 85 76 C64.54 76 44.08 76 23 76 C23 87.22 23 98.44 23 110 C46.76 110 70.52 110 95 110 C95 117.26 95 124.52 95 132 C63.65 132 32.3 132 0 132 C0 88.44 0 44.88 0 0 Z " fill="#FFFFFF" transform="translate(1688,826)"/>
<path d="M0 0 C78.82485465 0 78.82485465 0 93.87109375 14.5390625 C103.33097025 25.47433258 104.71198146 40.65931689 103.75390625 54.57421875 C102.08218731 67.07512584 98.04590081 76.42918101 88.125 84.53125 C69.91393498 96.97547776 44.76832385 94.18543146 24 94 C24 106.54 24 119.08 24 132 C16.08 132 8.16 132 0 132 C0 88.44 0 44.88 0 0 Z M24 21 C24 38.16 24 55.32 24 73 C30.80625 73.061875 30.80625 73.061875 37.75 73.125 C39.85713379 73.15231201 39.85713379 73.15231201 42.00683594 73.18017578 C54.73390741 73.23557303 65.7421553 72.86552877 75.3125 63.8125 C79.92542572 56.12429047 81.38591063 47.30689767 79.4609375 38.546875 C77.75243449 32.87689797 75.59696112 28.45048886 70.23046875 25.453125 C69.22628906 25.05609375 68.22210937 24.6590625 67.1875 24.25 C66.19105469 23.84265625 65.19460938 23.4353125 64.16796875 23.015625 C58.41543341 21.17140898 52.76307668 20.87655332 46.75390625 20.90234375 C44.95288452 20.90609009 44.95288452 20.90609009 43.11547852 20.90991211 C41.61299561 20.91901611 40.1105127 20.92812012 38.5625 20.9375 C33.756875 20.958125 28.95125 20.97875 24 21 Z " fill="#FFFFFF" transform="translate(1032,826)"/>
<path d="M0 0 C4.49832382 -0.32137305 8.99369159 -0.51538405 13.5 -0.6875 C14.7684375 -0.77966797 16.036875 -0.87183594 17.34375 -0.96679688 C26.51703443 -1.22957325 26.51703443 -1.22957325 30.3046875 1.91088867 C32.46166711 4.82858877 34.21464524 7.84076591 36 11 C37.29610681 13.00568873 38.62661221 14.98578839 39.95983887 16.96696472 C42.3434421 20.51628316 44.66589523 24.10552537 47 27.6875 C47.97500246 29.17920509 48.95026121 30.6707427 49.92578125 32.16210938 C52.28680671 35.77281984 54.6443753 39.385764 57 43 C60.09300696 39.44702336 62.3132201 35.76344191 64.5241394 31.64039612 C80.80629663 1.43023998 80.80629663 1.43023998 90.01269531 -1.77783203 C98.28590784 -3.65728506 106.91527733 -2.15209236 115 0 C113.85448207 3.02714019 112.67402433 5.73386417 110.84765625 8.40625 C110.19156372 9.37679321 110.19156372 9.37679321 109.5222168 10.36694336 C108.79965698 11.4228064 108.79965698 11.4228064 108.0625 12.5 C106.98571501 14.09419895 105.9102951 15.68932043 104.8359375 17.28515625 C104.23491211 18.17734863 103.63388672 19.06954102 103.01464844 19.98876953 C99.45448794 25.31002736 95.94811056 30.66654684 92.44113159 36.02294922 C91.21630766 37.89350484 89.99016827 39.76319302 88.76391602 41.6328125 C87.22628484 43.97767577 85.69561321 46.32686979 84.16943359 48.67919922 C82.74434103 50.86062045 81.29982658 53.02949964 79.83447266 55.18408203 C79.18397949 56.15587402 78.53348633 57.12766602 77.86328125 58.12890625 C76.9957019 59.40036499 76.9957019 59.40036499 76.1105957 60.69750977 C74.76479946 63.48761844 75.01393657 64.13895058 76 67 C77.13212192 69.07933201 77.13212192 69.07933201 78.56933594 71.19165039 C79.10790222 72.01093521 79.64646851 72.83022003 80.20135498 73.67433167 C80.78975159 74.55652878 81.37814819 75.43872589 81.984375 76.34765625 C82.9015329 77.73651283 82.9015329 77.73651283 83.83721924 79.15342712 C85.8028471 82.12666446 87.77647616 85.09449951 89.75 88.0625 C91.03304032 90.00293247 92.31559734 91.94368459 93.59765625 93.88476562 C98.63133854 101.49248635 103.67037358 109.09403903 108.85351562 116.60107422 C109.46012024 117.48000839 110.06672485 118.35894257 110.69171143 119.26451111 C111.84113629 120.92467308 112.99487694 122.58185767 114.15350342 124.23561096 C114.66133362 124.96795456 115.16916382 125.70029816 115.69238281 126.45483398 C116.3637326 127.41413063 116.3637326 127.41413063 117.04864502 128.39280701 C118 130 118 130 118 132 C108.37968169 133.87550936 98.40707361 135.29695295 89 132 C81.12341442 125.38776051 76.6023075 115.70597287 71.96142578 106.69433594 C69.32213782 101.61869433 66.13061764 96.94602969 62.875 92.25 C61.93319146 90.83967835 60.99288711 89.42835002 60.0546875 88.015625 C58.29733027 85.23526105 58.29733027 85.23526105 57 84 C56.37996094 84.96035156 55.75992188 85.92070313 55.12109375 86.91015625 C48.84813294 96.61842464 42.5458411 106.3071019 36.21655273 115.97875977 C35.61141846 116.90487061 35.00628418 117.83098145 34.3828125 118.78515625 C33.78911865 119.66768066 33.1954248 120.55020508 32.58374023 121.45947266 C30.9607179 123.91580478 30.9607179 123.91580478 29.96508789 126.44287109 C28.86836386 128.90390568 28.11295877 130.31072748 26 132 C21.05102081 132.98457901 16.19760326 132.75358527 11.1875 132.5 C9.81325414 132.45984294 8.43889614 132.42334594 7.06445312 132.390625 C3.70678525 132.29637467 0.35481899 132.16490272 -3 132 C-1.73749321 128.61348692 -0.29596157 125.68966124 1.69873047 122.67895508 C2.24044891 121.8565181 2.78216736 121.03408112 3.34030151 120.1867218 C4.21986008 118.86646248 4.21986008 118.86646248 5.1171875 117.51953125 C5.72958282 116.59267014 6.34197815 115.66580902 6.97293091 114.71086121 C8.9360656 111.7419214 10.90545545 108.77719046 12.875 105.8125 C14.16186572 103.8681081 15.44832799 101.92344913 16.734375 99.97851562 C17.36676086 99.02339081 17.99914673 98.06826599 18.6506958 97.084198 C19.91657731 95.1712946 21.18086916 93.25733825 22.44354248 91.34231567 C25.46948892 86.76422615 28.52961065 82.22071289 31.69238281 77.73583984 C32.5488591 76.50470711 32.5488591 76.50470711 33.42263794 75.248703 C34.49277504 73.71463369 35.57741388 72.19054282 36.67868042 70.67866516 C39.44949864 66.90909397 39.44949864 66.90909397 39.59912109 62.45361328 C39.07141113 61.6439209 38.54370117 60.83422852 38 60 C37.31099609 58.8968042 36.62199219 57.7936084 35.91210938 56.65698242 C35.06057182 55.3867274 34.20415778 54.11973235 33.34375 52.85546875 C32.88198364 52.16802078 32.42021729 51.48057281 31.94445801 50.77229309 C30.46735278 48.57437429 28.98417648 46.38064873 27.5 44.1875 C25.56956362 41.32906879 23.64232897 38.4685193 21.71875 35.60546875 C21.24311615 34.89765259 20.7674823 34.18983643 20.2774353 33.46057129 C16.49797877 27.80748927 12.86044384 22.0737274 9.28918457 16.28715515 C6.62813936 11.9755753 3.86393519 7.75557578 0.9609375 3.6015625 C0 2 0 2 0 0 Z " fill="#FFFFFF" transform="translate(319,826)"/>
<path d="M0 0 C78.83163989 0 78.83163989 0 93.02734375 13.62890625 C101.09732746 23.32886687 103.3860708 34.56611468 103.3125 46.8125 C103.30686035 47.78864258 103.3012207 48.76478516 103.29541016 49.77050781 C103.0939627 61.70178202 100.46451077 71.61198769 92.44140625 80.78125 C78.05600325 94.30421877 56.29139459 94.17227174 37.875 94.0625 C32.96625 94.041875 28.0575 94.02125 23 94 C23 106.54 23 119.08 23 132 C15.41 132 7.82 132 0 132 C0 88.44 0 44.88 0 0 Z M23 21 C23 38.16 23 55.32 23 73 C29.80625 73.061875 29.80625 73.061875 36.75 73.125 C38.85713379 73.15231201 38.85713379 73.15231201 41.00683594 73.18017578 C51.53324996 73.22599421 63.02747702 73.25686833 72 67 C78.75939078 60.24060922 79.96392304 52.21165125 80 43 C79.63388106 36.68692211 77.55862045 32.30894867 73.1953125 27.7265625 C65.73039471 21.85557733 55.80942032 20.86442388 46.6328125 20.90234375 C45.38902832 20.90484131 44.14524414 20.90733887 42.86376953 20.90991211 C41.29997559 20.91901611 39.73618164 20.92812012 38.125 20.9375 C33.13375 20.958125 28.1425 20.97875 23 21 Z " fill="#FFFFFF" transform="translate(1533,826)"/>
<path d="M0 0 C7.59 0 15.18 0 23 0 C23.0093457 2.41594482 23.01869141 4.83188965 23.02832031 7.32104492 C23.06224961 15.34780153 23.11788607 23.37430535 23.18390274 31.40085888 C23.22323234 36.2622878 23.25549148 41.12353951 23.27099609 45.98510742 C23.28625899 50.68619743 23.32087285 55.38679978 23.36830902 60.08767128 C23.38302424 61.871552 23.39103528 63.65550238 23.39188385 65.43944359 C23.40393389 78.08218754 23.65408387 91.07869139 32.2421875 101.28515625 C38.95791794 107.8367244 45.77936026 110.87480473 55.10546875 111.0625 C64.69037224 110.70292566 72.20100896 108.33404557 78.875 101.25 C85.33401138 93.1914693 87.12833316 84.95457718 87.20532227 74.81323242 C87.21522186 74.00295593 87.22512146 73.19267944 87.23532104 72.35784912 C87.26680619 69.69041831 87.29164193 67.02296971 87.31640625 64.35546875 C87.336987 62.50172982 87.35798377 60.64799546 87.37937927 58.79426575 C87.43448417 53.92322503 87.48394439 49.05214276 87.53222656 44.18103027 C87.5825263 39.20723793 87.63816809 34.23350567 87.69335938 29.25976562 C87.80079925 19.5065599 87.90178165 9.75330295 88 0 C95.92 0 103.84 0 112 0 C112.04544187 9.91087281 112.08202502 19.82167481 112.10362434 29.73262882 C112.11399834 34.33619667 112.12803876 38.93968867 112.15087891 43.54321289 C112.1728377 47.99769763 112.18461642 52.45211007 112.18975449 56.90664482 C112.19340939 58.59403049 112.20054443 60.28141285 112.21146011 61.96876717 C112.33721714 82.24102566 111.13711817 102.2671651 97.0390625 118.21875 C83.3701375 131.43035037 67.23858307 133.60193005 49.109375 133.3125 C35.91083265 132.8310942 24.9561563 127.61923168 15 119 C1.43285568 102.7295327 -0.46925139 87.18119602 -0.29296875 66.69921875 C-0.28736138 64.76724072 -0.28309669 62.83525838 -0.28010559 60.90327454 C-0.26874659 55.8612148 -0.23935821 50.81942154 -0.20599365 45.77746582 C-0.17509806 40.6153524 -0.16155893 35.4531952 -0.14648438 30.29101562 C-0.11447841 20.19387555 -0.0617854 10.0970018 0 0 Z " fill="#FFFFFF" transform="translate(482,826)"/>
<path d="M0 0 C7.59 0 15.18 0 23 0 C23.01458252 2.28953613 23.02916504 4.57907227 23.04418945 6.93798828 C23.09481876 14.55360386 23.16146128 22.16902102 23.23571491 29.78444099 C23.28019689 34.39582656 23.31950004 39.00712826 23.34643555 43.61865234 C23.37269207 48.07978598 23.41324707 52.54059295 23.46318626 57.00152206 C23.47970547 58.69247204 23.49131178 60.38347831 23.49761391 62.07449722 C23.55712037 76.59119977 23.83265004 91.5355022 34 103 C41.53247775 109.18783709 49.39870775 111.34898785 59 110.875 C66.53906665 110.05866794 73.62833929 107.51684073 79 102 C88.20422462 89.61784616 88.45833921 76.12738154 88.51171875 61.328125 C88.52859765 59.55164373 88.54675212 57.77517418 88.56611633 55.99871826 C88.6132742 51.3628709 88.64330353 46.72707103 88.66955566 42.09106445 C88.69953545 37.34446844 88.74600515 32.59803556 88.79101562 27.8515625 C88.87665876 18.56777572 88.9426483 9.2840047 89 0 C96.59 0 104.18 0 112 0 C112.09086781 10.80627946 112.16404028 21.61229944 112.20724869 32.41887665 C112.22800096 37.43841403 112.25608877 42.45767336 112.30175781 47.47705078 C112.34566148 52.33355894 112.36922967 57.18980201 112.37950897 62.04649353 C112.38682135 63.88659327 112.40109703 65.72668079 112.42292023 67.56666565 C112.64012999 86.66393181 110.12593273 104.27567083 96.44921875 118.67578125 C82.79865037 131.62966991 68.04736539 133.49220884 49.99609375 133.28125 C43.07779154 133.06642925 37.34379724 131.88699754 31 129 C30.20078125 128.649375 29.4015625 128.29875 28.578125 127.9375 C17.05858643 122.21745326 8.42124617 112.57019555 3.75 100.6875 C-0.22585775 88.43107135 -0.27182226 76.40850021 -0.1953125 63.671875 C-0.19157461 61.82814692 -0.18873131 59.98441683 -0.18673706 58.14068604 C-0.17916167 53.32719273 -0.15956673 48.51382333 -0.1373291 43.70037842 C-0.11673816 38.77292557 -0.10770723 33.84545238 -0.09765625 28.91796875 C-0.07631409 19.2785831 -0.04118285 9.63932132 0 0 Z " fill="#FFFFFF" transform="translate(159,826)"/>
<path d="M0 0 C8.28530265 -1.81787231 16.89511973 -3.06247891 25 0 C31.50020497 5.78999511 35.17051022 14.18938265 38.94104004 21.91397095 C42.31546155 28.81402724 46.32457974 35.26590704 50.40063477 41.76794434 C52.24799739 44.72065789 54.06758579 47.68905895 55.87890625 50.6640625 C56.4829126 51.64842285 57.08691895 52.6327832 57.70922852 53.64697266 C59 56 59 56 59 58 C59.66 58 60.32 58 61 58 C61.24967529 57.31421875 61.49935059 56.6284375 61.7565918 55.921875 C63.20276005 52.52353577 65.00119559 49.41085967 66.89453125 46.25 C67.46914848 45.27915466 67.46914848 45.27915466 68.05537415 44.28869629 C70.16163314 40.73761915 72.2941053 37.2032317 74.44287109 33.67773438 C75.32068044 32.23349417 76.19779826 30.78883343 77.07421875 29.34375 C77.50718262 28.63029419 77.94014648 27.91683838 78.38623047 27.1817627 C80.92145708 22.95355407 83.18263555 18.69173306 85.26953125 14.21875 C90.66989379 3.10695673 90.66989379 3.10695673 95 0 C103.16654387 -2.33577845 111.72466263 -1.3203782 120 0 C119.37179018 3.0644486 118.35434666 5.35854429 116.734375 8.02734375 C116.26338379 8.80827393 115.79239258 9.5892041 115.30712891 10.39379883 C114.79327637 11.23322021 114.27942383 12.0726416 113.75 12.9375 C113.2142334 13.82139404 112.6784668 14.70528809 112.12646484 15.6159668 C107.79810658 22.73959216 103.41219865 29.82792016 99.01220703 36.9074707 C94.26613125 44.54747787 89.5878784 52.22774743 84.93212891 59.9230957 C84.38991699 60.81730225 83.84770508 61.71150879 83.2890625 62.6328125 C82.78774307 63.47026001 82.28642365 64.30770752 81.76991272 65.17053223 C80 68 80 68 78.17927551 70.48503113 C73.08523851 77.61346911 71.98574806 83.01269466 72.09765625 91.66796875 C72.08536484 92.82879471 72.07307343 93.98962067 72.06040955 95.18562317 C72.02889361 98.85357423 72.04489664 102.51948963 72.0625 106.1875 C72.04937859 108.69077373 72.03313256 111.19403315 72.01367188 113.69726562 C71.96718332 119.79939395 71.98510819 125.89648734 72 132 C64.08 132 56.16 132 48 132 C48.1134375 128.47570312 48.226875 124.95140625 48.34375 121.3203125 C49.45956624 85.91446342 49.45956624 85.91446342 33.16015625 55.69482422 C29.53471174 51.17203302 26.72990408 46.18342471 23.8125 41.1875 C22.67994877 39.31388076 21.54327562 37.44274646 20.40234375 35.57421875 C19.84530762 34.65946777 19.28827148 33.7447168 18.71435547 32.80224609 C15.25884624 27.15395003 11.76381832 21.52993773 8.26098633 15.91088867 C0 2.62771133 0 2.62771133 0 0 Z " fill="#FFFFFF" transform="translate(2108,826)"/>
<path d="M0 0 C8.28530265 -1.81787231 16.89511973 -3.06247891 25 0 C31.50020497 5.78999511 35.17051022 14.18938265 38.94104004 21.91397095 C42.31546155 28.81402724 46.32457974 35.26590704 50.40063477 41.76794434 C52.24799739 44.72065789 54.06758579 47.68905895 55.87890625 50.6640625 C56.4829126 51.64842285 57.08691895 52.6327832 57.70922852 53.64697266 C59 56 59 56 59 58 C59.66 58 60.32 58 61 58 C61.24967529 57.31421875 61.49935059 56.6284375 61.7565918 55.921875 C63.20276005 52.52353577 65.00119559 49.41085967 66.89453125 46.25 C67.46914848 45.27915466 67.46914848 45.27915466 68.05537415 44.28869629 C70.16163314 40.73761915 72.2941053 37.2032317 74.44287109 33.67773438 C75.32068044 32.23349417 76.19779826 30.78883343 77.07421875 29.34375 C77.50718262 28.63029419 77.94014648 27.91683838 78.38623047 27.1817627 C80.92145708 22.95355407 83.18263555 18.69173306 85.26953125 14.21875 C90.66989379 3.10695673 90.66989379 3.10695673 95 0 C103.16654387 -2.33577845 111.72466263 -1.3203782 120 0 C118.45969051 5.75296315 115.53756006 10.2800611 112.375 15.25 C111.19348445 17.13248248 110.01251999 19.01531094 108.83203125 20.8984375 C108.2076416 21.89069336 107.58325195 22.88294922 106.93994141 23.90527344 C103.6154248 29.20876859 100.34006039 34.54240447 97.0625 39.875 C96.39702148 40.95628174 95.73154297 42.03756348 95.04589844 43.15161133 C89.78188254 51.71041221 84.55088708 60.28907394 79.34008789 68.88037109 C78.79731201 69.77449707 78.25453613 70.66862305 77.6953125 71.58984375 C76.9839917 72.76341431 76.9839917 72.76341431 76.25830078 73.96069336 C75.20792057 75.66302667 74.10957196 77.33564206 73 79 C72.67216171 81.44368974 72.67216171 81.44368974 72.68115234 84.20581055 C72.66128265 85.26668381 72.64141296 86.32755707 72.62094116 87.420578 C72.60938995 88.56440445 72.59783875 89.7082309 72.5859375 90.88671875 C72.56657135 92.05886429 72.5472052 93.23100983 72.5272522 94.43867493 C72.46739803 98.1882089 72.42104717 101.93777348 72.375 105.6875 C72.33682564 108.22722705 72.29777424 110.76694107 72.2578125 113.30664062 C72.16003855 119.53769327 72.08051446 125.76860457 72 132 C64.08 132 56.16 132 48 132 C48.07863281 128.41769531 48.15726563 124.83539062 48.23828125 121.14453125 C48.27023648 117.59937311 48.27956605 114.05480662 48.28686523 110.50952148 C48.3036963 108.08216088 48.3433323 105.65482999 48.40795898 103.22827148 C48.85702443 85.56868164 46.19788126 74.31255516 35.55551147 60.10702515 C33.54544617 57.38428204 31.83875976 54.57388855 30.125 51.65625 C29.60172119 50.79354492 29.07844238 49.93083984 28.53930664 49.04199219 C28.03133545 48.20313477 27.52336426 47.36427734 27 46.5 C22.38358542 38.89833441 17.7420499 31.31297744 13.0625 23.75 C12.52407471 22.87875488 11.98564941 22.00750977 11.4309082 21.10986328 C8.06098493 15.67063349 4.62970531 10.28125396 1.07421875 4.9609375 C0 3 0 3 0 0 Z " fill="#FFFFFF" transform="translate(797,826)"/>
<path d="M0 0 C33.99 0 67.98 0 103 0 C103 6.93 103 13.86 103 21 C89.8 21 76.6 21 63 21 C63 57.63 63 94.26 63 132 C55.41 132 47.82 132 40 132 C40 95.37 40 58.74 40 21 C26.8 21 13.6 21 0 21 C0 14.07 0 7.14 0 0 Z " fill="#FFFFFF" transform="translate(1975,826)"/>
<path d="M0 0 C7.59 0 15.18 0 23 0 C23 36.3 23 72.6 23 110 C42.47 110 61.94 110 82 110 C82 117.26 82 124.52 82 132 C54.94 132 27.88 132 0 132 C0 88.44 0 44.88 0 0 Z " fill="#FFFFFF" transform="translate(29,826)"/>
</svg>
