<?xml version="1.0" encoding="utf-8"?>
<!-- Generator: Adobe Illustrator 24.0.0, SVG Export Plug-In . SVG Version: 6.00 Build 0)  -->
<svg version="1.1" id="Layer_1" xmlns="http://www.w3.org/2000/svg" xmlns:xlink="http://www.w3.org/1999/xlink" x="0px" y="0px"
	 viewBox="0 0 407.21 163.07" style="enable-background:new 0 0 407.21 163.07;" xml:space="preserve">
<style type="text/css">
	.st0{fill:#FFFFFF;}
</style>
<g>
	<g>
		<path class="st0" d="M0.22,0h70.48v3.01H3.55v53.61h62.96v3.01H3.55v57.95H0.22V0z"/>
		<path class="st0" d="M122.47,0v117.57h-3.34V0H122.47z"/>
		<path class="st0" d="M183.09,117.57V0h5.35c20.37,29.89,71.14,104.54,77.32,114.06l0.33,0.5c-0.5-3.17-0.5-36.57-0.5-55.61V0h3.34
			v117.57h-4.84C244.55,88.68,193.95,14.03,186.27,2.84l-0.34-0.5c0.83,15.7,0.5,33.4,0.5,54.94v60.29H183.09z"/>
		<path class="st0" d="M396.87,56.78H332.9v57.78h69.64l-0.67,3.01h-72.31V0h70.64v3.01H332.9v50.77h63.97V56.78z"/>
	</g>
	<g>
		<path class="st0" d="M0,162.83v-24.26h4.09v20.37h11.07v3.89H0z"/>
		<path class="st0" d="M29.95,157.28c1.11,1.3,2.61,1.94,4.51,1.94c1.9,0,3.4-0.65,4.51-1.94c1.11-1.3,1.67-3.05,1.67-5.27v-13.43
			h4.09v13.6c0,3.49-0.96,6.18-2.88,8.07c-1.92,1.89-4.39,2.83-7.39,2.83c-3.01,0-5.47-0.94-7.39-2.83
			c-1.92-1.89-2.88-4.57-2.88-8.07v-13.6h4.1V152C28.28,154.22,28.84,155.98,29.95,157.28z"/>
		<path class="st0" d="M70.38,162.83l-5.97-9.13h-0.18l-5.97,9.13h-5.1l8.33-12.46l-7.74-11.8h5.07l5.41,8.19h0.18l5.41-8.19h5.07
			l-7.74,11.8l8.33,12.46H70.38z"/>
		<path class="st0" d="M89.67,157.28c1.11,1.3,2.61,1.94,4.51,1.94c1.9,0,3.4-0.65,4.51-1.94c1.11-1.3,1.67-3.05,1.67-5.27v-13.43
			h4.09v13.6c0,3.49-0.96,6.18-2.88,8.07c-1.92,1.89-4.39,2.83-7.39,2.83c-3.01,0-5.47-0.94-7.39-2.83
			c-1.92-1.89-2.88-4.57-2.88-8.07v-13.6h4.1V152C88.01,154.22,88.56,155.98,89.67,157.28z"/>
		<path class="st0" d="M135.1,146.45c0,4-1.75,6.52-5.24,7.57l6.35,8.81H131l-5.8-8.15h-5.38v8.15h-4.09v-24.26h9.02
			c3.7,0,6.35,0.62,7.95,1.87S135.1,143.69,135.1,146.45z M129.65,149.88c0.83-0.72,1.25-1.87,1.25-3.45c0-1.59-0.43-2.67-1.28-3.26
			c-0.86-0.59-2.38-0.89-4.58-0.89h-5.21v8.67h5.1C127.24,150.96,128.82,150.6,129.65,149.88z"/>
		<path class="st0" d="M155.4,162.83h-4.16v-9.58l-9.02-14.68h4.47l6.63,11.03l6.63-11.03h4.47l-9.02,14.68V162.83z"/>
		<path class="st0" d="M202.29,140.69c1.69,1.41,2.53,3.59,2.53,6.53c0,2.94-0.87,5.09-2.59,6.45c-1.73,1.37-4.37,2.05-7.93,2.05
			H190v7.11h-4.09v-24.26h8.33C197.91,138.57,200.6,139.28,202.29,140.69z M199.39,150.7c0.82-0.87,1.23-2.14,1.23-3.82
			s-0.52-2.86-1.56-3.56c-1.04-0.69-2.67-1.04-4.89-1.04H190V152h4.76C197.02,152,198.57,151.57,199.39,150.7z"/>
		<path class="st0" d="M233.87,146.45c0,4-1.75,6.52-5.24,7.57l6.35,8.81h-5.2l-5.8-8.15h-5.38v8.15h-4.09v-24.26h9.02
			c3.7,0,6.35,0.62,7.95,1.87S233.87,143.69,233.87,146.45z M228.42,149.88c0.83-0.72,1.25-1.87,1.25-3.45
			c0-1.59-0.43-2.67-1.28-3.26c-0.86-0.59-2.38-0.89-4.58-0.89h-5.21v8.67h5.1C226.01,150.96,227.59,150.6,228.42,149.88z"/>
		<path class="st0" d="M264.93,159.48c-2.45,2.4-5.48,3.59-9.09,3.59s-6.64-1.2-9.09-3.59c-2.45-2.39-3.68-5.38-3.68-8.95
			c0-3.57,1.23-6.56,3.68-8.95c2.45-2.4,5.48-3.59,9.09-3.59s6.64,1.2,9.09,3.59c2.45,2.4,3.68,5.38,3.68,8.95
			C268.61,154.1,267.38,157.09,264.93,159.48z M261.93,144.3c-1.65-1.71-3.68-2.57-6.09-2.57s-4.44,0.86-6.09,2.57
			c-1.66,1.71-2.48,3.79-2.48,6.23s0.82,4.52,2.48,6.23c1.65,1.71,3.68,2.57,6.09,2.57s4.44-0.86,6.09-2.57s2.48-3.79,2.48-6.23
			S263.58,146.01,261.93,144.3z"/>
		<path class="st0" d="M295.02,140.69c1.69,1.41,2.53,3.59,2.53,6.53c0,2.94-0.87,5.09-2.59,6.45c-1.73,1.37-4.37,2.05-7.93,2.05
			h-4.31v7.11h-4.09v-24.26h8.33C290.64,138.57,293.33,139.28,295.02,140.69z M292.12,150.7c0.82-0.87,1.23-2.14,1.23-3.82
			s-0.52-2.86-1.56-3.56c-1.04-0.69-2.67-1.04-4.89-1.04h-4.17V152h4.76C289.75,152,291.3,151.57,292.12,150.7z"/>
		<path class="st0" d="M324.27,138.57v3.85h-12.95v6.42h11.63v3.64h-11.63v6.49h13.36v3.85h-17.46v-24.26H324.27z"/>
		<path class="st0" d="M354.15,146.45c0,4-1.75,6.52-5.24,7.57l6.35,8.81h-5.2l-5.8-8.15h-5.38v8.15h-4.09v-24.26h9.02
			c3.7,0,6.35,0.62,7.95,1.87S354.15,143.69,354.15,146.45z M348.7,149.88c0.83-0.72,1.25-1.87,1.25-3.45
			c0-1.59-0.43-2.67-1.28-3.26c-0.86-0.59-2.38-0.89-4.58-0.89h-5.21v8.67h5.1C346.29,150.96,347.87,150.6,348.7,149.88z"/>
		<path class="st0" d="M371.99,142.32v20.51h-4.1v-20.51h-7.36v-3.75h18.81v3.75H371.99z"/>
		<path class="st0" d="M398.19,162.83h-4.16v-9.58L385,138.57h4.47l6.63,11.03l6.63-11.03h4.47l-9.02,14.68V162.83z"/>
	</g>
</g>
</svg>
